<svg width="1770" height="900" viewBox="0 0 1770 900" fill="none" xmlns="http://www.w3.org/2000/svg">
<rect width="1770" height="900" fill="#E5E5E5"/>
<path d="M1017 450L599 900H1456L1017 450Z" fill="#C36666"/>
<path d="M1017 450L932.9 900H1456L1017 450Z" fill="#7C1414"/>
<path d="M0 900L458 662L876 900H0Z" fill="#6C5958"/>
<path d="M397 900L458 662L876 900H397Z" fill="#A01C2D"/>
<path d="M1263 546L1612 900H936L1263 546Z" fill="#6A5150"/>
<path d="M1263 546L1612 900H1222L1263 546Z" fill="#772E41"/>
<path d="M701 695L946 900H427L701 695Z" fill="#B24C49"/>
<path d="M647 900L701 695L946 900H647Z" fill="#502B3C"/>
<path d="M1770 900L1461 632L1156 900H1770Z" fill="#BF7B7A"/>
<path d="M1770 900L1461 632L1425 900H1770Z" fill="#563750"/>
<path d="M1270 900L1031 687L785 900H1270Z" fill="#C67E7E"/>
<path d="M1003 900H1270L1031 687L1003 900Z" fill="#5A316D"/>
</svg>
